<svg height="1024" node-id="1" sillyvg="true" template-height="1024" template-width="1024" version="1.1" viewBox="0 0 1024 1024" width="1024" xmlns="http://www.w3.org/2000/svg" xmlns:xlink="http://www.w3.org/1999/xlink"><defs node-id="204"><clipPath id="master_svg0_33_7225" node-id="3"><path d="M 0.00 0.00 L 1024.00 0.00 L 1024.00 1024.00 L 0.00 1024.00 Z" fill="#000000" fill-rule="nonzero" node-id="207" stroke="none" target-height="1024" target-width="1024" target-x="0" target-y="0"/></clipPath></defs><g node-id="705"><g clip-path="url(#master_svg0_33_7225)" group-id="1" id="sillyvg_g_1" node-id="213"><path d="M 1012.00 429.00 L 1011.70 501.20 L 927.80 550.00 L 928.10 477.80 L 1012.00 429.00 Z" fill="#efac41" fill-rule="nonzero" group-id="1,2" node-id="217" stroke="none" target-height="121" target-width="84.20001" target-x="927.8" target-y="429"/><path d="M 928.10 477.80 L 927.80 550.00 L 843.40 501.20 L 843.60 429.00 L 928.10 477.80 Z" fill="#f9bb4a" fill-rule="nonzero" group-id="1,3" node-id="222" stroke="none" target-height="121" target-width="84.69995" target-x="843.4" target-y="429"/><path d="M 1012.00 429.10 L 928.10 477.90 L 880.30 450.40 L 843.60 429.10 L 927.60 380.30 L 1012.00 429.10 Z" fill="#fed57a" fill-rule="nonzero" group-id="1,4" node-id="227" stroke="none" target-height="97.600006" target-width="168.40002" target-x="843.6" target-y="380.3"/><path d="M 880.30 407.70 L 964.20 456.50 L 975.10 450.40 L 890.90 401.60 L 880.30 407.70 Z" fill="#efac41" fill-rule="nonzero" group-id="1,5" node-id="232" stroke="none" target-height="54.899994" target-width="94.79999" target-x="880.3" target-y="401.6"/><path d="M 964.20 456.50 L 964.30 528.70 L 975.10 522.40 L 975.00 450.40 L 964.20 456.50 Z" fill="#d8983a" fill-rule="nonzero" group-id="1,6" node-id="237" stroke="none" target-height="78.30002" target-width="10.899963" target-x="964.2" target-y="450.4"/><path d="M 975.10 407.70 L 891.20 456.50 L 880.30 450.40 L 964.50 401.60 L 975.10 407.70 Z" fill="#efac41" fill-rule="nonzero" group-id="1,7" node-id="242" stroke="none" target-height="54.899994" target-width="94.79999" target-x="880.3" target-y="401.6"/><path d="M 891.20 456.50 L 891.10 528.70 L 880.30 522.40 L 880.40 450.40 L 891.20 456.50 Z" fill="#d8983a" fill-rule="nonzero" group-id="1,8" node-id="247" stroke="none" target-height="78.30002" target-width="10.900024" target-x="880.3" target-y="450.4"/><path d="M 922.20 669.70 L 921.90 741.80 L 838.00 790.60 L 838.30 718.40 L 922.20 669.70 Z" fill="#efac41" fill-rule="nonzero" group-id="1,9" node-id="252" stroke="none" target-height="120.89996" target-width="84.20001" target-x="838" target-y="669.7"/><path d="M 838.30 718.40 L 838.00 790.60 L 753.50 741.80 L 753.80 669.60 L 838.30 718.40 Z" fill="#f9bb4a" fill-rule="nonzero" group-id="1,10" node-id="257" stroke="none" target-height="121" target-width="84.79999" target-x="753.5" target-y="669.6"/><path d="M 922.20 669.70 L 838.30 718.50 L 790.50 691.00 L 753.80 669.70 L 837.70 621.00 L 922.20 669.70 Z" fill="#fed57a" fill-rule="nonzero" group-id="1,11" node-id="262" stroke="none" target-height="97.5" target-width="168.40002" target-x="753.8" target-y="621"/><path d="M 790.40 648.30 L 874.40 697.10 L 885.20 691.00 L 801.10 642.20 L 790.40 648.30 Z" fill="#efac41" fill-rule="nonzero" group-id="1,12" node-id="267" stroke="none" target-height="54.899963" target-width="94.79999" target-x="790.4" target-y="642.2"/><path d="M 874.30 697.10 L 874.50 769.30 L 885.30 763.00 L 885.10 691.00 L 874.30 697.10 Z" fill="#d8983a" fill-rule="nonzero" group-id="1,13" node-id="272" stroke="none" target-height="78.29999" target-width="11" target-x="874.3" target-y="691"/><path d="M 885.30 648.30 L 801.40 697.10 L 790.50 691.00 L 874.60 642.20 L 885.30 648.30 Z" fill="#efac41" fill-rule="nonzero" group-id="1,14" node-id="277" stroke="none" target-height="54.899963" target-width="94.79999" target-x="790.5" target-y="642.2"/><path d="M 801.40 697.10 L 801.20 769.30 L 790.40 763.00 L 790.60 691.00 L 801.40 697.10 Z" fill="#d8983a" fill-rule="nonzero" group-id="1,15" node-id="282" stroke="none" target-height="78.29999" target-width="11" target-x="790.4" target-y="691"/><path d="M 877.10 310.00 L 329.40 628.30 L 12.70 445.50 L 560.40 127.20 L 877.10 310.00 Z" fill="#fed57a" fill-rule="nonzero" group-id="1,16" node-id="287" stroke="none" target-height="501.09998" target-width="864.39996" target-x="12.7" target-y="127.2"/><path d="M 877.10 310.00 L 876.40 568.40 L 328.60 886.80 L 329.40 628.30 L 877.10 310.00 Z" fill="#efac41" fill-rule="nonzero" group-id="1,17" node-id="292" stroke="none" target-height="576.8" target-width="548.5" target-x="328.6" target-y="310"/><path d="M 329.40 628.30 L 328.60 886.80 L 12.00 703.90 L 12.70 445.50 L 329.40 628.30 Z" fill="#f9bb4a" fill-rule="nonzero" group-id="1,18" node-id="297" stroke="none" target-height="441.3" target-width="317.4" target-x="12" target-y="445.5"/><path d="M 109.30 623.50 L 109.50 599.10 L 202.10 652.50 L 201.80 676.90 L 109.30 623.50 Z" fill="#4c7891" fill-rule="nonzero" group-id="1,19" node-id="302" stroke="none" target-height="77.80005" target-width="92.8" target-x="109.3" target-y="599.1"/><path d="M 730.00 224.40 L 182.00 542.50 L 182.00 620.10 L 161.90 590.40 L 142.30 598.70 L 142.30 519.50 L 690.30 201.40 L 730.00 224.40 Z" fill="#e4e8f4" fill-rule="nonzero" group-id="1,20" node-id="307" stroke="none" target-height="418.69998" target-width="587.7" target-x="142.3" target-y="201.4"/><path d="M 851.80 552.70 L 683.90 649.70 L 683.60 531.60 L 851.40 434.70 L 851.80 552.70 Z" fill="#ffffff" fill-rule="nonzero" group-id="1,21" node-id="312" stroke="none" target-height="215" target-width="168.20001" target-x="683.6" target-y="434.7"/><path d="M 694.60 534.00 L 694.80 634.60 L 690.90 636.80 L 690.60 536.30 L 694.60 534.00 Z M 717.20 521.00 L 717.50 621.50 L 713.40 623.80 L 713.20 523.30 L 717.20 521.00 Z M 709.70 525.30 L 710.00 625.80 L 707.60 627.20 L 707.30 526.70 L 709.70 525.30 Z M 722.10 518.10 L 722.40 618.70 L 719.90 620.10 L 719.60 519.60 L 722.10 518.10 Z M 725.00 516.50 L 725.30 617.00 L 724.30 617.50 L 724.00 517.00 L 725.00 516.50 Z M 729.30 514.00 L 729.60 614.50 L 727.10 615.90 L 726.90 515.40 L 729.30 514.00 Z M 735.40 510.40 L 735.70 611.00 L 732.00 613.10 L 731.80 512.60 L 735.40 510.40 Z M 740.30 507.60 L 740.60 608.10 L 738.20 609.60 L 737.90 509.00 L 740.30 507.60 Z M 703.70 528.70 L 704.00 629.30 L 697.20 633.20 L 696.90 532.70 L 703.70 528.70 Z M 746.70 503.90 L 747.00 604.50 L 743.00 606.70 L 742.80 506.20 L 746.70 503.90 Z M 761.70 495.30 L 762.00 595.80 L 759.60 597.20 L 759.30 496.70 L 761.70 495.30 Z M 774.10 488.10 L 774.40 588.60 L 771.90 590.10 L 771.60 489.50 L 774.10 488.10 Z M 777.10 486.40 L 777.40 586.90 L 776.40 587.40 L 776.20 486.90 L 777.10 486.40 Z M 787.40 480.40 L 787.70 580.90 L 784.20 583.00 L 783.90 482.50 L 787.40 480.40 Z M 792.30 477.60 L 792.60 578.10 L 790.10 579.50 L 789.90 479.00 L 792.30 477.60 Z M 755.90 498.60 L 756.10 599.20 L 749.30 603.10 L 749.00 502.60 L 755.90 498.60 Z M 798.70 473.90 L 799.00 574.40 L 795.00 576.70 L 794.80 476.20 L 798.70 473.90 Z M 813.80 465.20 L 814.10 565.70 L 811.70 567.10 L 811.40 466.60 L 813.80 465.20 Z M 833.40 453.90 L 833.70 554.40 L 831.30 555.80 L 831.00 455.30 L 833.40 453.90 Z M 839.50 450.30 L 839.80 550.80 L 836.20 553.00 L 835.90 452.50 L 839.50 450.30 Z M 807.80 468.60 L 808.10 569.10 L 801.30 573.10 L 801.00 472.60 L 807.80 468.60 Z M 769.20 490.90 L 769.50 591.50 L 765.60 593.70 L 765.30 493.20 L 769.20 490.90 Z M 781.40 483.90 L 781.70 584.40 L 779.30 585.80 L 779.00 485.30 L 781.40 483.90 Z M 821.30 460.90 L 821.60 561.40 L 817.70 563.60 L 817.40 463.10 L 821.30 460.90 Z M 826.20 458.00 L 826.50 558.50 L 824.00 560.00 L 823.80 459.40 L 826.20 458.00 Z M 829.10 456.30 L 829.40 556.90 L 828.40 557.40 L 828.20 456.90 L 829.10 456.30 Z M 844.40 447.50 L 844.70 548.00 L 842.30 549.40 L 842.00 448.90 L 844.40 447.50 Z" fill="#5b5e71" fill-rule="nonzero" group-id="1,22,99" node-id="319" stroke="none" target-height="189.29999" target-width="154.10004" target-x="690.6" target-y="447.5"/><path d="M 280.00 762.90 L 271.20 779.90 L 288.80 790.10 L 280.00 762.90 Z M 276.70 783.10 L 276.60 816.80 L 283.20 820.60 L 283.30 787.00 L 276.70 783.10 Z M 243.90 800.70 L 243.80 807.90 L 289.50 834.50 L 289.50 827.30 L 243.90 800.70 Z M 160.50 695.00 L 160.40 719.00 L 160.80 722.80 L 161.70 726.80 L 163.30 730.60 L 165.30 734.20 L 167.80 737.30 L 170.50 739.90 L 170.40 761.50 L 168.30 760.70 L 165.40 760.20 L 164.20 760.50 L 163.60 761.10 L 163.30 762.10 L 181.10 772.50 L 180.30 769.90 L 179.10 768.30 L 176.90 765.90 L 174.10 763.60 L 174.10 742.00 L 176.10 742.60 L 177.80 742.70 L 179.40 742.40 L 180.80 741.70 L 182.20 740.30 L 183.30 738.30 L 184.00 736.00 L 184.30 733.00 L 184.30 709.00 L 160.50 695.00 Z M 250.20 767.60 L 250.20 801.30 L 256.80 805.20 L 256.90 771.50 L 250.20 767.60 Z" fill="#3f434f" fill-rule="nonzero" group-id="1,23" node-id="325" stroke="none" target-height="139.5" target-width="129.1" target-x="160.4" target-y="695"/><path d="M 253.60 747.40 L 244.80 764.40 L 262.30 774.60 L 253.60 747.40 Z M 207.20 796.00 L 204.70 795.20 L 142.80 759.10 L 141.50 758.20 L 139.40 755.40 L 138.20 752.10 L 138.00 750.50 L 138.20 678.50 L 138.40 677.20 L 139.30 675.20 L 140.10 674.50 L 141.40 674.10 L 142.80 674.20 L 144.40 674.80 L 206.20 710.90 L 207.50 711.90 L 209.70 714.70 L 211.00 718.00 L 211.10 719.60 L 210.90 791.60 L 210.70 793.40 L 210.00 794.60 L 209.00 795.50 L 207.20 796.00 Z M 141.90 676.70 L 141.00 677.40 L 140.80 678.50 L 140.60 750.50 L 140.90 752.30 L 141.70 754.10 L 142.80 755.70 L 144.10 756.80 L 206.00 793.00 L 207.00 793.30 L 207.70 793.20 L 208.10 792.70 L 208.30 791.60 L 208.50 719.60 L 208.30 717.80 L 207.40 716.00 L 206.30 714.30 L 204.90 713.20 L 143.00 677.10 L 141.90 676.70 Z" fill="#3f434f" fill-rule="nonzero" group-id="1,24" node-id="330" stroke="none" target-height="121.900024" target-width="124.29999" target-x="138" target-y="674.1"/><path d="M 299.30 849.80 L 296.80 849.10 L 234.90 812.90 L 232.50 810.80 L 231.50 809.30 L 230.40 806.80 L 230.10 804.40 L 230.30 732.30 L 230.50 730.50 L 231.20 729.20 L 232.20 728.30 L 233.50 727.90 L 234.90 727.90 L 236.40 728.60 L 298.30 764.70 L 299.60 765.70 L 301.80 768.50 L 303.10 771.80 L 303.20 773.40 L 303.00 845.40 L 302.80 847.10 L 302.10 848.40 L 301.10 849.30 L 299.30 849.80 Z M 234.00 730.50 L 233.10 731.20 L 232.90 732.30 L 232.70 804.40 L 233.00 806.10 L 233.80 807.90 L 234.90 809.50 L 236.20 810.60 L 298.10 846.80 L 299.10 847.10 L 299.80 847.00 L 300.20 846.50 L 300.40 845.40 L 300.60 773.40 L 300.30 771.60 L 299.50 769.80 L 298.30 768.10 L 297.00 767.00 L 235.10 730.90 L 234.00 730.50 Z M 115.10 742.20 L 112.60 741.50 L 50.70 705.40 L 48.30 703.20 L 47.30 701.70 L 46.30 699.20 L 45.90 696.80 L 46.10 624.70 L 46.40 622.90 L 47.00 621.70 L 48.00 620.80 L 49.30 620.30 L 50.70 620.40 L 52.30 621.00 L 114.10 657.20 L 115.40 658.10 L 117.60 660.90 L 118.90 664.20 L 119.10 665.80 L 118.90 737.90 L 118.70 739.10 L 117.80 741.10 L 117.00 741.80 L 115.10 742.20 Z M 49.80 622.90 L 48.90 623.60 L 48.70 624.70 L 48.50 696.80 L 48.80 698.50 L 49.60 700.40 L 50.70 702.00 L 52.10 703.10 L 113.90 739.20 L 114.90 739.60 L 115.60 739.50 L 116.10 738.90 L 116.30 737.90 L 116.40 665.80 L 116.20 664.10 L 115.40 662.20 L 114.20 660.60 L 112.80 659.50 L 50.90 623.30 L 49.80 622.90 Z" fill="#3f434f" fill-rule="nonzero" group-id="1,25" node-id="335" stroke="none" target-height="229.5" target-width="257.30002" target-x="45.9" target-y="620.3"/><path d="M 81.10 648.20 L 81.00 651.50 L 77.70 650.10 L 74.70 649.30 L 72.00 649.00 L 69.60 649.20 L 67.10 649.80 L 65.00 650.90 L 63.10 652.40 L 61.40 654.40 L 60.20 656.60 L 59.20 659.20 L 58.60 662.40 L 58.30 666.10 L 81.00 679.40 L 80.90 706.10 L 81.10 708.50 L 81.90 711.00 L 84.50 715.50 L 86.30 717.40 L 88.20 718.80 L 90.30 719.70 L 91.90 719.80 L 93.30 719.40 L 94.40 718.40 L 95.20 716.90 L 95.50 714.70 L 92.40 712.90 L 92.30 714.20 L 91.20 715.60 L 89.40 715.80 L 88.20 715.30 L 86.60 714.00 L 85.20 712.10 L 84.30 710.00 L 83.90 707.90 L 84.00 681.10 L 106.70 694.40 L 106.50 690.70 L 105.90 686.90 L 103.60 679.10 L 102.00 675.20 L 98.00 667.80 L 93.00 661.20 L 90.10 658.20 L 84.10 653.30 L 84.10 650.00 L 81.10 648.20 Z" fill="#3f434f" fill-rule="nonzero" group-id="1,26" node-id="340" stroke="none" target-height="71.599976" target-width="48.399998" target-x="58.3" target-y="648.2"/><path d="M 765.20 121.20 L 764.50 336.20 L 569.30 449.70 L 570.00 234.70 L 765.20 121.20 Z" fill="#efac41" fill-rule="nonzero" group-id="1,27" node-id="345" stroke="none" target-height="328.5" target-width="195.90002" target-x="569.3" target-y="121.2"/><path d="M 570.10 234.70 L 569.30 449.70 L 372.80 336.20 L 373.40 121.10 L 570.10 234.70 Z" fill="#f9bb4a" fill-rule="nonzero" group-id="1,28" node-id="350" stroke="none" target-height="328.6" target-width="197.29999" target-x="372.8" target-y="121.1"/><path d="M 765.30 121.30 L 570.00 234.80 L 484.10 185.10 L 458.80 170.80 L 373.40 121.30 L 568.70 7.90 L 765.30 121.30 Z" fill="#fed57a" fill-rule="nonzero" group-id="1,29" node-id="355" stroke="none" target-height="226.90001" target-width="391.9" target-x="373.4" target-y="7.9"/><path d="M 547.10 148.50 L 484.10 185.10 L 458.80 170.80 L 522.20 134.20 L 547.10 148.50 Z M 679.30 71.70 L 616.40 108.30 L 591.00 94.00 L 654.70 57.70 L 679.30 71.70 Z" fill="#efac41" fill-rule="nonzero" group-id="1,30" node-id="360" stroke="none" target-height="127.40001" target-width="220.5" target-x="458.8" target-y="57.7"/><path d="M 484.20 185.00 L 483.90 400.10 L 458.70 385.60 L 459.00 170.80 L 484.20 185.00 Z" fill="#d8983a" fill-rule="nonzero" group-id="1,31" node-id="365" stroke="none" target-height="229.3" target-width="25.5" target-x="458.7" target-y="170.8"/><path d="M 648.80 217.70 L 748.60 160.10 L 748.70 223.20 L 648.90 280.80 L 648.80 217.70 Z M 746.50 221.90 L 746.40 163.90 L 651.00 219.00 L 651.10 277.00 L 746.50 221.90 Z" fill="#5b5e71" fill-rule="nonzero" group-id="1,32" node-id="370" stroke="none" target-height="120.69998" target-width="99.900024" target-x="648.8" target-y="160.1"/><path d="M 746.50 222.00 L 651.10 277.00 L 650.90 219.00 L 746.30 163.90 L 746.50 222.00 Z" fill="#ffffff" fill-rule="nonzero" group-id="1,33" node-id="375" stroke="none" target-height="113.100006" target-width="95.599976" target-x="650.9" target-y="163.9"/><path d="M 751.90 153.40 L 752.80 153.10 L 753.50 153.30 L 754.00 153.80 L 754.20 154.80 L 754.40 222.00 L 753.80 224.20 L 752.10 225.90 L 645.70 287.40 L 644.70 287.80 L 644.00 287.60 L 643.50 287.10 L 643.30 286.10 L 643.20 218.90 L 643.30 217.80 L 644.60 215.60 L 751.90 153.40 Z M 748.70 223.20 L 748.60 160.10 L 648.80 217.70 L 648.90 280.80 L 748.70 223.20 Z" fill="#ffffff" fill-rule="nonzero" group-id="1,34" node-id="380" stroke="none" target-height="134.69998" target-width="111.20001" target-x="643.2" target-y="153.1"/><path d="M 741.40 173.40 L 741.40 175.90 L 656.00 225.20 L 656.00 222.70 L 741.40 173.40 Z M 741.40 190.10 L 741.40 192.70 L 656.00 242.00 L 656.00 239.40 L 741.40 190.10 Z M 741.40 181.70 L 741.40 184.30 L 656.00 233.60 L 656.00 231.00 L 741.40 181.70 Z M 716.10 213.20 L 716.10 215.70 L 656.10 250.30 L 656.10 247.80 L 716.10 213.20 Z" fill="#5b5e71" fill-rule="nonzero" group-id="1,35" node-id="385" stroke="none" target-height="76.90001" target-width="85.400024" target-x="656" target-y="173.4"/><path d="M 384.00 323.90 L 449.30 361.60 L 449.40 315.70 L 384.10 277.90 L 384.00 323.90 Z" fill="#ffffff" fill-rule="nonzero" group-id="1,36" node-id="390" stroke="none" target-height="83.70001" target-width="65.399994" target-x="384" target-y="277.9"/><path d="M 445.10 316.60 L 445.00 355.70 L 446.60 356.60 L 446.70 317.50 L 445.10 316.60 Z M 436.30 311.50 L 436.20 350.60 L 437.80 351.50 L 437.90 312.40 L 436.30 311.50 Z M 439.20 313.20 L 439.10 352.30 L 440.10 352.90 L 440.20 313.70 L 439.20 313.20 Z M 434.40 310.40 L 434.30 349.50 L 435.30 350.10 L 435.40 311.00 L 434.40 310.40 Z M 433.30 309.70 L 433.20 348.90 L 433.60 349.10 L 433.70 310.00 L 433.30 309.70 Z M 431.60 308.80 L 431.50 347.90 L 432.50 348.50 L 432.60 309.30 L 431.60 308.80 Z M 429.20 307.40 L 429.10 346.50 L 430.60 347.30 L 430.70 308.20 L 429.20 307.40 Z M 427.30 306.30 L 427.20 345.40 L 428.20 346.00 L 428.30 306.90 L 427.30 306.30 Z M 441.60 314.50 L 441.50 353.70 L 444.10 355.20 L 444.20 316.10 L 441.60 314.50 Z M 424.90 304.90 L 424.70 344.00 L 426.30 344.90 L 426.40 305.80 L 424.90 304.90 Z M 419.00 301.50 L 418.90 340.60 L 419.80 341.20 L 420.00 302.00 L 419.00 301.50 Z M 414.20 298.70 L 414.10 337.80 L 415.00 338.40 L 415.10 299.30 L 414.20 298.70 Z M 413.00 298.00 L 412.90 337.20 L 413.30 337.40 L 413.40 298.30 L 413.00 298.00 Z M 409.00 295.70 L 408.90 334.80 L 410.30 335.60 L 410.40 296.50 L 409.00 295.70 Z M 407.10 294.60 L 407.00 333.70 L 407.90 334.30 L 408.10 295.20 L 407.10 294.60 Z M 421.30 302.80 L 421.20 341.90 L 423.80 343.50 L 424.00 304.40 L 421.30 302.80 Z M 404.60 293.20 L 404.50 332.30 L 406.00 333.20 L 406.10 294.10 L 404.60 293.20 Z M 398.70 289.80 L 398.60 328.90 L 399.60 329.50 L 399.70 290.30 L 398.70 289.80 Z M 391.10 285.40 L 391.00 324.50 L 391.90 325.10 L 392.10 285.90 L 391.10 285.40 Z M 388.70 284.00 L 388.60 323.10 L 390.00 324.00 L 390.20 284.80 L 388.70 284.00 Z M 401.10 291.10 L 400.90 330.30 L 403.60 331.80 L 403.70 292.70 L 401.10 291.10 Z M 416.10 299.80 L 416.00 338.90 L 417.50 339.80 L 417.60 300.70 L 416.10 299.80 Z M 411.30 297.10 L 411.20 336.20 L 412.20 336.70 L 412.30 297.60 L 411.30 297.10 Z M 395.80 288.10 L 395.70 327.20 L 397.20 328.10 L 397.30 289.00 L 395.80 288.10 Z M 393.90 287.00 L 393.80 326.10 L 394.80 326.70 L 394.90 287.60 L 393.90 287.00 Z M 392.80 286.40 L 392.70 325.50 L 393.00 325.70 L 393.20 286.60 L 392.80 286.40 Z M 386.80 282.90 L 386.70 322.00 L 387.70 322.60 L 387.80 283.50 L 386.80 282.90 Z" fill="#5b5e71" fill-rule="nonzero" group-id="1,37,100" node-id="397" stroke="none" target-height="73.70001" target-width="60" target-x="386.7" target-y="282.9"/><path d="M 663.70 795.10 L 658.20 793.10 L 655.00 770.70 L 660.50 772.80 L 663.70 795.10 Z M 659.50 765.90 L 654.10 763.90 L 647.10 715.20 L 652.60 717.30 L 659.50 765.90 Z" fill="#525566" fill-rule="nonzero" group-id="1,38" node-id="403" stroke="none" target-height="79.89996" target-width="16.600037" target-x="647.1" target-y="715.2"/><path d="M 602.80 798.70 L 597.40 796.60 L 654.10 763.90 L 659.50 765.90 L 602.80 798.70 Z" fill="#5b5e71" fill-rule="nonzero" group-id="1,39" node-id="408" stroke="none" target-height="34.799988" target-width="62.099976" target-x="597.4" target-y="763.9"/><path d="M 651.60 710.40 L 646.20 708.40 L 639.20 659.70 L 644.60 661.80 L 651.60 710.40 Z" fill="#525566" fill-rule="nonzero" group-id="1,40" node-id="413" stroke="none" target-height="50.700012" target-width="12.399963" target-x="639.2" target-y="659.7"/><path d="M 594.90 743.20 L 589.50 741.10 L 646.20 708.40 L 651.60 710.40 L 594.90 743.20 Z" fill="#5b5e71" fill-rule="nonzero" group-id="1,41" node-id="418" stroke="none" target-height="34.799988" target-width="62.099976" target-x="589.5" target-y="708.4"/><path d="M 643.70 654.90 L 638.20 652.90 L 631.30 604.20 L 636.70 606.30 L 643.70 654.90 Z" fill="#525566" fill-rule="nonzero" group-id="1,42" node-id="423" stroke="none" target-height="50.700012" target-width="12.400024" target-x="631.3" target-y="604.2"/><path d="M 587.00 687.70 L 581.50 685.60 L 638.20 652.90 L 643.70 654.90 L 587.00 687.70 Z" fill="#5b5e71" fill-rule="nonzero" group-id="1,43" node-id="428" stroke="none" target-height="34.799988" target-width="62.200012" target-x="581.5" target-y="652.9"/><path d="M 635.70 599.40 L 630.30 597.40 L 623.40 548.70 L 628.80 550.80 L 635.70 599.40 Z" fill="#525566" fill-rule="nonzero" group-id="1,44" node-id="433" stroke="none" target-height="50.700012" target-width="12.299988" target-x="623.4" target-y="548.7"/><path d="M 579.10 632.20 L 573.60 630.10 L 630.30 597.40 L 635.80 599.40 L 579.10 632.20 Z" fill="#5b5e71" fill-rule="nonzero" group-id="1,45" node-id="438" stroke="none" target-height="34.799988" target-width="62.200012" target-x="573.6" target-y="597.4"/><path d="M 627.80 543.90 L 622.40 541.90 L 615.50 493.20 L 620.90 495.20 L 627.80 543.90 Z M 619.90 488.40 L 614.50 486.40 L 611.30 464.10 L 616.70 466.10 L 619.90 488.40 Z" fill="#525566" fill-rule="nonzero" group-id="1,46" node-id="443" stroke="none" target-height="79.80002" target-width="16.5" target-x="611.3" target-y="464.1"/><path d="M 616.70 466.10 L 611.30 464.10 L 616.80 460.90 L 622.30 462.90 L 616.70 466.10 Z M 571.10 576.60 L 565.70 574.60 L 622.40 541.80 L 627.80 543.90 L 571.10 576.60 Z M 563.20 521.10 L 557.80 519.10 L 614.50 486.40 L 619.90 488.40 L 563.20 521.10 Z M 554.50 502.10 L 549.10 500.00 L 554.60 496.80 L 560.00 498.80 L 554.50 502.10 Z" fill="#5b5e71" fill-rule="nonzero" group-id="1,47" node-id="448" stroke="none" target-height="115.69998" target-width="78.70001" target-x="549.1" target-y="460.9"/><path d="M 616.70 466.10 L 622.30 462.90 L 669.20 791.90 L 663.70 795.10 L 660.50 772.80 L 603.80 805.50 L 607.00 827.90 L 601.40 831.10 L 554.50 502.00 L 560.00 498.80 L 563.20 521.10 L 619.90 488.40 L 616.70 466.10 Z M 659.50 765.90 L 652.60 717.30 L 595.90 750.00 L 602.80 798.70 L 659.50 765.90 Z M 643.70 654.90 L 636.70 606.30 L 580.00 639.00 L 587.00 687.70 L 643.70 654.90 Z M 635.80 599.50 L 628.80 550.80 L 572.10 583.50 L 579.10 632.20 L 635.80 599.50 Z M 627.80 543.90 L 620.90 495.20 L 564.20 528.00 L 571.10 576.60 L 627.80 543.90 Z M 651.60 710.40 L 644.60 661.80 L 587.90 694.50 L 594.90 743.20 L 651.60 710.40 Z" fill="#474b59" fill-rule="nonzero" group-id="1,48" node-id="453" stroke="none" target-height="368.19998" target-width="114.70001" target-x="554.5" target-y="462.9"/><path d="M 601.40 831.10 L 596.00 829.00 L 549.10 500.00 L 554.50 502.00 L 601.40 831.10 Z M 392.40 501.80 L 397.60 499.80 L 400.60 478.70 L 395.50 480.70 L 392.40 501.80 Z M 396.40 474.20 L 401.50 472.30 L 408.00 426.40 L 402.90 428.30 L 396.40 474.20 Z" fill="#525566" fill-rule="nonzero" group-id="1,49" node-id="458" stroke="none" target-height="404.69998" target-width="209.00003" target-x="392.4" target-y="426.4"/><path d="M 449.80 505.10 L 455.00 503.20 L 401.50 472.30 L 396.40 474.20 L 449.80 505.10 Z" fill="#5b5e71" fill-rule="nonzero" group-id="1,50" node-id="463" stroke="none" target-height="32.80002" target-width="58.600006" target-x="396.4" target-y="472.3"/><path d="M 403.80 421.90 L 409.00 420.00 L 415.50 374.10 L 410.40 376.00 L 403.80 421.90 Z" fill="#525566" fill-rule="nonzero" group-id="1,51" node-id="468" stroke="none" target-height="47.799988" target-width="11.700012" target-x="403.8" target-y="374.1"/><path d="M 457.30 452.80 L 462.40 450.80 L 409.00 420.00 L 403.80 421.90 L 457.30 452.80 Z" fill="#5b5e71" fill-rule="nonzero" group-id="1,52" node-id="473" stroke="none" target-height="32.799988" target-width="58.600006" target-x="403.8" target-y="420"/><path d="M 411.30 369.60 L 416.40 367.60 L 423.00 321.70 L 417.80 323.70 L 411.30 369.60 Z" fill="#525566" fill-rule="nonzero" group-id="1,53" node-id="478" stroke="none" target-height="47.899994" target-width="11.700012" target-x="411.3" target-y="321.7"/><path d="M 464.80 400.40 L 469.90 398.50 L 416.40 367.60 L 411.30 369.60 L 464.80 400.40 Z" fill="#5b5e71" fill-rule="nonzero" group-id="1,54" node-id="483" stroke="none" target-height="32.799988" target-width="58.600006" target-x="411.3" target-y="367.6"/><path d="M 418.80 317.20 L 423.90 315.30 L 430.40 269.40 L 425.30 271.30 L 418.80 317.20 Z" fill="#525566" fill-rule="nonzero" group-id="1,55" node-id="488" stroke="none" target-height="47.80002" target-width="11.600006" target-x="418.8" target-y="269.4"/><path d="M 472.20 348.10 L 477.40 346.20 L 423.90 315.30 L 418.80 317.20 L 472.20 348.10 Z" fill="#5b5e71" fill-rule="nonzero" group-id="1,56" node-id="493" stroke="none" target-height="32.80002" target-width="58.600006" target-x="418.8" target-y="315.3"/><path d="M 426.20 264.80 L 431.40 262.90 L 437.90 217.00 L 432.80 219.00 L 426.20 264.80 Z M 433.70 212.50 L 438.80 210.60 L 441.80 189.50 L 436.70 191.50 L 433.70 212.50 Z" fill="#525566" fill-rule="nonzero" group-id="1,57" node-id="498" stroke="none" target-height="75.29999" target-width="15.599976" target-x="426.2" target-y="189.5"/><path d="M 436.70 191.50 L 441.80 189.60 L 436.60 186.50 L 431.50 188.50 L 436.70 191.50 Z M 479.70 295.70 L 484.80 293.80 L 431.40 262.90 L 426.20 264.80 L 479.70 295.70 Z M 487.20 243.40 L 492.30 241.40 L 438.80 210.60 L 433.70 212.50 L 487.20 243.40 Z M 495.40 225.40 L 500.50 223.40 L 495.30 220.40 L 490.20 222.30 L 495.40 225.40 Z" fill="#5b5e71" fill-rule="nonzero" group-id="1,58" node-id="503" stroke="none" target-height="109.20001" target-width="74.29999" target-x="426.2" target-y="186.5"/><path d="M 433.70 212.50 L 487.20 243.40 L 490.20 222.30 L 495.40 225.40 L 451.10 535.60 L 445.90 532.60 L 448.90 511.50 L 395.50 480.70 L 392.40 501.80 L 387.20 498.70 L 431.50 188.50 L 436.70 191.50 L 433.70 212.50 Z M 396.40 474.20 L 449.80 505.10 L 456.40 459.20 L 402.90 428.30 L 396.40 474.20 Z M 411.30 369.60 L 464.80 400.40 L 471.30 354.50 L 417.80 323.70 L 411.30 369.60 Z M 418.80 317.20 L 472.20 348.10 L 478.80 302.20 L 425.30 271.30 L 418.80 317.20 Z M 426.20 264.80 L 479.70 295.70 L 486.20 249.80 L 432.80 218.90 L 426.20 264.80 Z M 403.80 421.90 L 457.30 452.80 L 463.80 406.90 L 410.40 376.00 L 403.80 421.90 Z" fill="#474b59" fill-rule="nonzero" group-id="1,59" node-id="508" stroke="none" target-height="347.09998" target-width="108.19998" target-x="387.2" target-y="188.5"/><path d="M 451.10 535.70 L 456.30 533.70 L 500.50 223.40 L 495.40 225.40 L 451.10 535.70 Z" fill="#525566" fill-rule="nonzero" group-id="1,60" node-id="513" stroke="none" target-height="312.30002" target-width="49.399994" target-x="451.1" target-y="223.4"/><path d="M 598.30 92.30 L 598.20 104.90 L 598.00 108.00 L 597.20 111.00 L 595.90 114.10 L 594.10 117.20 L 591.90 119.90 L 589.20 122.70 L 585.80 125.30 L 581.80 128.00 L 577.20 130.30 L 572.30 132.40 L 567.10 134.10 L 556.10 136.50 L 550.40 137.20 L 538.80 137.50 L 527.20 136.50 L 521.60 135.50 L 510.90 132.40 L 506.00 130.30 L 501.40 128.00 L 497.30 125.30 L 493.90 122.60 L 491.10 119.80 L 488.80 117.00 L 487.00 113.90 L 485.70 110.80 L 484.90 107.70 L 484.70 104.50 L 484.70 91.90 L 485.00 95.10 L 485.70 98.10 L 487.00 101.30 L 488.90 104.40 L 491.10 107.20 L 493.90 110.00 L 497.30 112.70 L 501.50 115.40 L 506.10 117.70 L 511.00 119.80 L 516.30 121.50 L 527.20 123.90 L 538.80 124.90 L 550.40 124.60 L 561.70 122.90 L 572.40 119.80 L 577.30 117.70 L 581.80 115.40 L 585.90 112.70 L 589.20 110.10 L 592.00 107.30 L 594.20 104.60 L 596.00 101.50 L 597.30 98.40 L 598.00 95.40 L 598.30 92.30 Z" fill="#37617b" fill-rule="nonzero" group-id="1,61" node-id="518" stroke="none" target-height="45.6" target-width="113.599976" target-x="484.7" target-y="91.9"/><path d="M 484.70 92.00 L 485.00 94.90 L 485.60 97.70 L 486.70 100.60 L 488.20 103.40 L 490.20 106.10 L 492.70 108.80 L 497.60 112.90 L 501.50 115.40 L 506.70 118.10 L 512.10 120.20 L 521.60 122.90 L 530.90 124.40 L 541.70 125.00 L 552.50 124.40 L 561.80 122.90 L 571.20 120.30 L 576.60 118.10 L 581.80 115.40 L 586.70 112.20 L 589.30 110.00 L 591.80 107.50 L 594.20 104.50 L 596.00 101.50 L 597.30 98.50 L 598.00 95.40 L 598.30 92.30 L 598.00 89.20 L 597.30 86.10 L 596.00 83.00 L 594.10 79.80 L 591.90 77.00 L 589.10 74.20 L 585.70 71.50 L 581.50 68.80 L 576.90 66.50 L 572.00 64.40 L 566.70 62.70 L 555.80 60.30 L 544.20 59.30 L 532.60 59.60 L 521.30 61.30 L 510.60 64.40 L 505.70 66.50 L 501.20 68.80 L 497.10 71.50 L 493.80 74.20 L 491.00 76.90 L 488.90 79.70 L 487.00 82.80 L 485.70 85.90 L 485.00 88.90 L 484.70 92.00 Z M 491.60 95.60 L 492.50 92.60 L 494.00 89.60 L 496.10 86.60 L 498.60 83.90 L 501.80 81.30 L 505.80 78.70 L 510.90 76.10 L 516.40 74.00 L 522.40 72.30 L 528.50 71.10 L 534.80 70.40 L 541.30 70.20 L 547.80 70.40 L 554.10 71.10 L 560.20 72.30 L 566.30 74.00 L 571.80 76.10 L 576.90 78.70 L 581.00 81.30 L 584.20 83.90 L 586.80 86.70 L 589.00 89.70 L 590.50 92.80 L 591.40 95.80 L 590.50 98.80 L 589.00 101.80 L 586.90 104.80 L 584.30 107.50 L 581.10 110.20 L 577.20 112.70 L 572.20 115.30 L 566.70 117.40 L 560.60 119.10 L 554.50 120.30 L 548.20 121.00 L 541.70 121.20 L 535.20 121.00 L 528.90 120.30 L 522.80 119.10 L 516.70 117.40 L 511.20 115.30 L 506.10 112.70 L 502.10 110.10 L 498.80 107.50 L 496.20 104.70 L 494.00 101.70 L 492.50 98.60 L 491.60 95.60 Z" fill="#4c7891" fill-rule="nonzero" group-id="1,62" node-id="523" stroke="none" target-height="65.7" target-width="113.599976" target-x="484.7" target-y="59.3"/><path d="M 491.60 95.60 L 492.50 92.60 L 494.00 89.60 L 496.10 86.60 L 498.60 83.90 L 501.80 81.30 L 505.80 78.70 L 510.90 76.10 L 516.40 74.00 L 522.40 72.30 L 528.50 71.10 L 534.80 70.40 L 541.30 70.20 L 547.80 70.40 L 554.10 71.10 L 560.20 72.30 L 566.30 74.00 L 571.80 76.10 L 576.90 78.70 L 581.00 81.30 L 584.20 83.90 L 586.80 86.70 L 589.00 89.70 L 590.50 92.80 L 591.40 95.80 L 591.80 92.60 L 591.50 89.40 L 590.70 86.20 L 589.20 82.90 L 587.20 80.00 L 584.60 77.10 L 581.20 74.30 L 576.90 71.50 L 571.80 68.90 L 566.30 66.80 L 560.20 65.10 L 554.10 63.90 L 547.80 63.20 L 541.30 63.00 L 534.80 63.20 L 528.50 63.90 L 522.40 65.10 L 516.40 66.80 L 510.90 68.90 L 505.80 71.50 L 501.60 74.30 L 498.30 77.10 L 495.70 79.90 L 493.80 82.80 L 492.30 86.00 L 491.50 89.20 L 491.20 92.40 L 491.60 95.60 Z" fill="#37617b" fill-rule="nonzero" group-id="1,63" node-id="528" stroke="none" target-height="32.800003" target-width="100.599976" target-x="491.2" target-y="63"/><path d="M 582.60 121.60 L 582.80 123.00 L 584.00 124.70 L 598.20 133.00 L 597.50 132.30 L 597.00 131.30 L 596.80 129.90 L 597.40 126.70 L 598.20 125.00 L 599.80 122.90 L 601.70 121.30 L 603.10 120.70 L 604.30 120.70 L 605.20 121.00 L 590.10 112.30 L 588.90 112.40 L 587.50 113.00 L 585.00 115.20 L 583.20 118.30 L 582.60 121.60 Z" fill="#d4dae8" fill-rule="nonzero" group-id="1,64" node-id="533" stroke="none" target-height="20.699997" target-width="22.600037" target-x="582.6" target-y="112.3"/><path d="M 601.70 121.30 L 603.10 120.70 L 604.30 120.70 L 605.20 121.00 L 606.00 121.60 L 606.50 122.60 L 606.70 124.10 L 606.50 125.70 L 605.20 129.00 L 603.00 131.70 L 601.70 132.70 L 600.30 133.20 L 599.20 133.30 L 598.20 133.00 L 597.50 132.40 L 597.00 131.40 L 596.80 129.90 L 597.00 128.30 L 598.20 125.00 L 600.40 122.30 L 601.70 121.30 Z" fill="#f34858" fill-rule="nonzero" group-id="1,65" node-id="538" stroke="none" target-height="12.600006" target-width="9.900024" target-x="596.8" target-y="120.7"/><path d="M 652.10 144.10 L 649.60 143.60 L 646.60 144.70 L 644.60 146.10 L 642.70 148.10 L 641.20 150.40 L 640.00 152.90 L 639.20 155.50 L 639.00 158.00 L 639.60 161.10 L 641.20 162.80 L 593.80 134.70 L 592.20 133.00 L 591.60 129.80 L 591.90 127.30 L 592.60 124.70 L 593.80 122.20 L 595.40 120.00 L 597.20 118.00 L 599.30 116.50 L 601.00 115.80 L 603.60 115.60 L 652.10 144.10 Z" fill="#f9607f" fill-rule="nonzero" group-id="1,66" node-id="543" stroke="none" target-height="47.200005" target-width="60.5" target-x="591.6" target-y="115.6"/><path d="M 646.60 144.70 L 649.80 143.60 L 651.00 143.70 L 653.00 144.80 L 654.10 147.20 L 654.30 149.10 L 654.10 151.50 L 653.30 154.10 L 652.10 156.60 L 650.50 158.90 L 648.70 160.80 L 646.70 162.30 L 643.50 163.40 L 641.20 162.90 L 639.60 161.10 L 639.00 157.90 L 639.20 155.50 L 640.00 152.90 L 641.20 150.40 L 642.70 148.10 L 644.60 146.10 L 646.60 144.70 Z" fill="#f34858" fill-rule="nonzero" group-id="1,67" node-id="548" stroke="none" target-height="19.799988" target-width="15.299988" target-x="639" target-y="143.6"/><path d="M 576.90 78.70 L 571.80 76.10 L 566.30 74.00 L 560.30 72.30 L 554.10 71.10 L 547.80 70.40 L 541.30 70.20 L 534.80 70.40 L 528.50 71.10 L 522.40 72.30 L 516.40 74.00 L 510.90 76.10 L 505.80 78.70 L 501.80 81.30 L 498.60 83.90 L 496.10 86.60 L 494.00 89.60 L 492.50 92.60 L 491.60 95.60 L 492.50 98.70 L 494.00 101.70 L 496.20 104.70 L 498.80 107.50 L 502.10 110.10 L 506.10 112.70 L 511.20 115.30 L 516.70 117.40 L 522.80 119.10 L 528.90 120.30 L 535.20 121.00 L 541.70 121.20 L 548.20 121.00 L 554.50 120.30 L 560.60 119.10 L 566.70 117.40 L 572.20 115.30 L 577.30 112.70 L 581.20 110.20 L 584.30 107.50 L 586.90 104.80 L 589.00 101.80 L 590.50 98.80 L 591.40 95.80 L 590.50 92.80 L 589.00 89.70 L 586.80 86.70 L 584.20 84.00 L 581.00 81.30 L 576.90 78.70 Z" fill="#748bfd" fill-opacity="0.2509804" fill-rule="nonzero" group-id="1,68" node-id="553" stroke="none" target-height="51" target-width="99.80002" target-x="491.6" target-y="70.2"/><path d="M 387.70 935.30 L 387.70 947.20 L 393.10 950.30 L 393.10 960.80 L 489.40 1016.10 L 497.80 1011.30 L 503.30 1014.50 L 525.80 1001.60 L 525.80 995.10 L 616.00 943.00 L 621.10 946.00 L 643.50 933.10 L 643.50 927.10 L 654.60 920.70 L 654.50 910.10 L 665.50 903.80 L 665.50 891.90 L 585.00 845.70 L 585.00 838.00 L 508.20 793.30 L 461.40 820.30 L 461.20 756.50 L 498.90 734.70 L 498.80 679.30 L 489.70 674.10 L 409.90 720.10 L 410.10 775.60 L 419.10 780.80 L 441.60 767.80 L 441.80 831.70 L 430.90 838.00 L 431.10 910.20 L 387.70 935.30 Z" fill="#d4dae8" fill-rule="nonzero" group-id="1,69" node-id="558" stroke="none" target-height="342" target-width="277.8" target-x="387.7" target-y="674.1"/><path d="M 447.70 918.00 L 442.10 914.80 L 441.50 740.10 L 447.10 743.40 L 447.70 918.00 Z" fill="#474b59" fill-rule="nonzero" group-id="1,70" node-id="563" stroke="none" target-height="177.90002" target-width="6.200012" target-x="441.5" target-y="740.1"/><path d="M 461.20 735.30 L 461.80 909.90 L 447.70 918.00 L 447.10 743.40 L 461.20 735.30 Z" fill="#5b5e71" fill-rule="nonzero" group-id="1,71" node-id="568" stroke="none" target-height="182.70001" target-width="14.699982" target-x="447.1" target-y="735.3"/><path d="M 455.50 743.40 L 449.90 740.10 L 464.00 732.00 L 469.60 735.30 L 455.50 743.40 Z" fill="#d6a140" fill-rule="nonzero" group-id="1,72" node-id="573" stroke="none" target-height="11.400024" target-width="19.700012" target-x="449.9" target-y="732"/><path d="M 419.00 725.40 L 409.90 720.20 L 410.10 775.50 L 419.10 780.80 L 419.00 725.40 Z" fill="#6eba6e" fill-rule="nonzero" group-id="1,73" node-id="578" stroke="none" target-height="60.599976" target-width="9.200012" target-x="409.9" target-y="720.2"/><path d="M 498.80 679.30 L 489.70 674.10 L 409.90 720.20 L 419.00 725.40 L 498.80 679.30 Z" fill="#9ad898" fill-rule="nonzero" group-id="1,74" node-id="583" stroke="none" target-height="51.30005" target-width="88.899994" target-x="409.9" target-y="674.1"/><path d="M 419.00 725.40 L 419.10 780.80 L 498.90 734.70 L 498.80 679.30 L 419.00 725.40 Z" fill="#75ca75" fill-rule="nonzero" group-id="1,75" node-id="588" stroke="none" target-height="101.5" target-width="79.899994" target-x="419" target-y="679.3"/><path d="M 493.30 724.20 L 493.30 688.90 L 424.50 728.60 L 424.60 763.90 L 493.30 724.20 Z" fill="#e4e8f4" fill-rule="nonzero" group-id="1,76" node-id="593" stroke="none" target-height="75" target-width="68.79999" target-x="424.5" target-y="688.9"/><path d="M 489.90 722.80 L 489.90 694.30 L 427.90 730.10 L 427.90 758.50 L 489.90 722.80 Z" fill="#4c7891" fill-rule="nonzero" group-id="1,77" node-id="598" stroke="none" target-height="64.20001" target-width="62" target-x="427.9" target-y="694.3"/><path d="M 476.40 738.10 L 476.40 743.60 L 439.20 765.10 L 439.20 759.60 L 476.40 738.10 Z" fill="#f9607f" fill-rule="nonzero" group-id="1,78" node-id="603" stroke="none" target-height="27" target-width="37.19998" target-x="439.2" target-y="738.1"/><path d="M 488.30 731.20 L 488.40 736.70 L 481.40 740.70 L 481.40 735.20 L 488.30 731.20 Z" fill="#ffffff" fill-rule="nonzero" group-id="1,79" node-id="608" stroke="none" target-height="9.5" target-width="7" target-x="481.4" target-y="731.2"/><path d="M 608.10 932.00 L 608.10 938.50 L 621.10 946.00 L 621.10 939.60 L 608.10 932.00 Z" fill="#3f434f" fill-rule="nonzero" group-id="1,80" node-id="613" stroke="none" target-height="14" target-width="13" target-x="608.1" target-y="932"/><path d="M 621.10 939.60 L 621.10 946.00 L 643.50 933.10 L 643.50 926.70 L 621.10 939.60 Z" fill="#525566" fill-rule="nonzero" group-id="1,81" node-id="618" stroke="none" target-height="19.299988" target-width="22.400024" target-x="621.1" target-y="926.7"/><path d="M 608.10 932.00 L 621.10 939.60 L 643.50 926.70 L 630.50 919.10 L 608.10 932.00 Z" fill="#000000" fill-rule="nonzero" group-id="1,82" node-id="623" stroke="none" target-height="20.5" target-width="35.400024" target-x="608.1" target-y="919.1"/><path d="M 490.30 1000.50 L 490.40 1007.00 L 503.40 1014.50 L 503.30 1008.10 L 490.30 1000.50 Z" fill="#3f434f" fill-rule="nonzero" group-id="1,83" node-id="628" stroke="none" target-height="14" target-width="13.100006" target-x="490.3" target-y="1000.5"/><path d="M 503.30 1008.10 L 503.40 1014.50 L 525.80 1001.60 L 525.80 995.10 L 503.30 1008.10 Z" fill="#525566" fill-rule="nonzero" group-id="1,84" node-id="633" stroke="none" target-height="19.400024" target-width="22.5" target-x="503.3" target-y="995.1"/><path d="M 490.30 1000.50 L 503.30 1008.10 L 525.80 995.10 L 512.80 987.60 L 490.30 1000.50 Z" fill="#000000" fill-rule="nonzero" group-id="1,85" node-id="638" stroke="none" target-height="20.5" target-width="35.5" target-x="490.3" target-y="987.6"/><path d="M 393.10 949.70 L 393.10 960.80 L 489.30 1016.10 L 489.30 1005.00 L 393.10 949.70 Z" fill="#bac1ce" fill-rule="nonzero" group-id="1,86" node-id="643" stroke="none" target-height="66.39996" target-width="96.19998" target-x="393.1" target-y="949.7"/><path d="M 489.30 1005.00 L 489.30 1016.10 L 654.60 920.70 L 654.50 909.60 L 489.30 1005.00 Z" fill="#cad0dd" fill-rule="nonzero" group-id="1,87" node-id="648" stroke="none" target-height="106.5" target-width="165.29999" target-x="489.3" target-y="909.6"/><path d="M 393.10 949.70 L 489.30 1005.00 L 654.50 909.60 L 558.30 854.30 L 393.10 949.70 Z" fill="#697c88" fill-rule="nonzero" group-id="1,88" node-id="653" stroke="none" target-height="150.70001" target-width="261.4" target-x="393.1" target-y="854.3"/><path d="M 387.70 935.30 L 387.70 947.20 L 489.30 1005.50 L 489.20 993.70 L 387.70 935.30 Z" fill="#37617b" fill-rule="nonzero" group-id="1,89" node-id="658" stroke="none" target-height="70.20001" target-width="101.599976" target-x="387.7" target-y="935.3"/><path d="M 489.20 993.70 L 489.30 1005.50 L 665.50 903.80 L 665.50 892.00 L 489.20 993.70 Z" fill="#416e84" fill-rule="nonzero" group-id="1,90" node-id="663" stroke="none" target-height="113.5" target-width="176.29999" target-x="489.2" target-y="892"/><path d="M 387.70 935.30 L 489.20 993.70 L 665.50 892.00 L 563.90 833.60 L 387.70 935.30 Z" fill="#4c7891" fill-rule="nonzero" group-id="1,91" node-id="668" stroke="none" target-height="160.10004" target-width="277.8" target-x="387.7" target-y="833.6"/><path d="M 430.90 838.00 L 507.70 882.60 L 585.00 838.00 L 508.20 793.30 L 430.90 838.00 Z" fill="#fed57a" fill-rule="nonzero" group-id="1,92" node-id="673" stroke="none" target-height="89.29999" target-width="154.1" target-x="430.9" target-y="793.3"/><path d="M 430.90 838.00 L 431.10 923.30 L 507.90 967.90 L 507.70 882.60 L 430.90 838.00 Z" fill="#efac41" fill-rule="nonzero" group-id="1,93" node-id="678" stroke="none" target-height="129.90002" target-width="77" target-x="430.9" target-y="838"/><path d="M 507.70 882.60 L 507.90 967.90 L 585.20 923.30 L 585.00 838.00 L 507.70 882.60 Z" fill="#f9bb4a" fill-rule="nonzero" group-id="1,94" node-id="683" stroke="none" target-height="129.90002" target-width="77.5" target-x="507.7" target-y="838"/><path d="M 563.10 899.00 L 563.00 890.30 L 529.80 909.50 L 529.90 918.20 L 563.10 899.00 Z" fill="#4c7891" fill-rule="nonzero" group-id="1,95" node-id="688" stroke="none" target-height="27.900024" target-width="33.299988" target-x="529.8" target-y="890.3"/><path d="M 552.90 856.50 L 552.90 882.60 L 546.40 879.90 L 539.80 889.70 L 539.80 864.10 L 552.90 856.50 Z" fill="#f34858" fill-rule="nonzero" group-id="1,96" node-id="693" stroke="none" target-height="33.200012" target-width="13.100037" target-x="539.8" target-y="856.5"/><path d="M 476.10 811.90 L 552.90 856.50 L 539.80 864.10 L 463.00 819.50 L 476.10 811.90 Z" fill="#f9607f" fill-rule="nonzero" group-id="1,97" node-id="698" stroke="none" target-height="52.19995" target-width="89.900024" target-x="463" target-y="811.9"/><path d="M 437.00 730.70 L 437.10 748.60 L 434.60 750.00 L 434.50 734.80 L 431.40 736.60 L 431.40 733.90 L 437.00 730.70 Z M 445.80 725.20 L 447.10 724.60 L 449.20 724.60 L 450.00 725.20 L 450.50 726.10 L 450.70 727.70 L 450.60 729.00 L 449.30 732.40 L 444.10 741.60 L 451.20 737.50 L 451.20 740.40 L 440.60 746.60 L 440.60 744.00 L 447.50 731.60 L 448.20 729.10 L 448.00 728.20 L 447.50 727.70 L 446.70 727.60 L 445.70 728.00 L 444.50 728.80 L 442.50 732.10 L 440.30 731.90 L 442.60 727.90 L 444.00 726.40 L 445.80 725.20 Z M 463.20 715.50 L 463.20 717.90 L 459.50 724.90 L 460.90 724.30 L 462.00 724.30 L 463.50 725.20 L 464.00 727.40 L 463.90 729.20 L 462.40 732.60 L 461.20 734.20 L 458.30 736.60 L 456.50 737.40 L 454.90 737.70 L 453.30 737.60 L 454.40 734.50 L 455.80 734.60 L 458.40 733.70 L 460.70 731.70 L 461.30 730.40 L 461.40 728.20 L 460.50 727.50 L 459.50 727.50 L 457.80 728.20 L 456.10 729.50 L 456.10 727.20 L 459.70 720.20 L 454.10 723.50 L 454.10 720.80 L 463.20 715.50 Z" fill="#e4e8f4" fill-rule="nonzero" group-id="1,98" node-id="703" stroke="none" target-height="34.5" target-width="32.600006" target-x="431.4" target-y="715.5"/></g></g></svg>